<?xml version="1.0" encoding="UTF-8"?>
<mxfile host="app.diagrams.net" modified="2024-01-01T00:00:00.000Z" agent="5.0" etag="xxx" version="22.1.16" type="device">
  <diagram name="Transformer Block Architecture" id="transformer-block">
    <mxGraphModel dx="1422" dy="794" grid="1" gridSize="10" guides="1" tooltips="1" connect="1" arrows="1" fold="1" page="1" pageScale="1" pageWidth="800" pageHeight="1100" math="0" shadow="0">
      <root>
        <mxCell id="0" />
        <mxCell id="1" parent="0" />
        
        <!-- Input -->
        <mxCell id="input" value="Input Features&#xa;Shape: (B, N, D)" style="rounded=1;whiteSpace=wrap;html=1;fillColor=#dae8fc;strokeColor=#6c8ebf;fontStyle=1;fontSize=12;" vertex="1" parent="1">
          <mxGeometry x="50" y="50" width="140" height="50" as="geometry" />
        </mxCell>
        
        <!-- First Residual Branch -->
        <mxCell id="residual1_group" value="First Residual Branch (Attention)" style="rounded=1;whiteSpace=wrap;html=1;fillColor=#f8cecc;strokeColor=#b85450;fontStyle=1;fontSize=14;dashed=1;" vertex="1" parent="1">
          <mxGeometry x="30" y="130" width="320" height="200" as="geometry" />
        </mxCell>
        
        <mxCell id="norm1" value="Layer Norm 1&#xa;norm_layer(dim)" style="rounded=1;whiteSpace=wrap;html=1;fillColor=#d5e8d4;strokeColor=#82b366;fontSize=11;" vertex="1" parent="1">
          <mxGeometry x="50" y="150" width="100" height="40" as="geometry" />
        </mxCell>
        
        <!-- Multi-Head Attention Detail -->
        <mxCell id="attention_detail" value="Multi-Head Attention" style="rounded=1;whiteSpace=wrap;html=1;fillColor=#e1d5e7;strokeColor=#9673a6;fontStyle=1;fontSize=12;dashed=1;" vertex="1" parent="1">
          <mxGeometry x="180" y="140" width="150" height="120" as="geometry" />
        </mxCell>
        
        <mxCell id="qkv_linear" value="QKV Linear&#xa;dim → 3 × all_head_dim&#xa;+ bias handling" style="rounded=1;whiteSpace=wrap;html=1;fillColor=#e1d5e7;strokeColor=#9673a6;fontSize=10;" vertex="1" parent="1">
          <mxGeometry x="200" y="160" width="110" height="30" as="geometry" />
        </mxCell>
        
        <mxCell id="reshape_split" value="Reshape & Split&#xa;→ Q, K, V&#xa;(B, H, N, D_h)" style="rounded=1;whiteSpace=wrap;html=1;fillColor=#e1d5e7;strokeColor=#9673a6;fontSize=10;" vertex="1" parent="1">
          <mxGeometry x="200" y="200" width="110" height="30" as="geometry" />
        </mxCell>
        
        <mxCell id="attention_calc" value="Attention Calculation&#xa;Softmax(QK^T/√d_k)V&#xa;+ dropout" style="rounded=1;whiteSpace=wrap;html=1;fillColor=#e1d5e7;strokeColor=#9673a6;fontSize=10;" vertex="1" parent="1">
          <mxGeometry x="200" y="240" width="110" height="30" as="geometry" />
        </mxCell>
        
        <!-- Residual Connection 1 -->
        <mxCell id="residual_add1" value="Residual Add&#xa;x = x + attention(norm1(x))&#xa;+ γ₁ scaling (if enabled)" style="rounded=1;whiteSpace=wrap;html=1;fillColor=#fff2cc;strokeColor=#d6b656;fontStyle=1;fontSize=11;" vertex="1" parent="1">
          <mxGeometry x="50" y="280" width="150" height="40" as="geometry" />
        </mxCell>
        
        <!-- Second Residual Branch -->
        <mxCell id="residual2_group" value="Second Residual Branch (MLP)" style="rounded=1;whiteSpace=wrap;html=1;fillColor=#f8cecc;strokeColor=#b85450;fontStyle=1;fontSize=14;dashed=1;" vertex="1" parent="1">
          <mxGeometry x="30" y="360" width="320" height="200" as="geometry" />
        </mxCell>
        
        <mxCell id="norm2" value="Layer Norm 2&#xa;norm_layer(dim)" style="rounded=1;whiteSpace=wrap;html=1;fillColor=#d5e8d4;strokeColor=#82b366;fontSize=11;" vertex="1" parent="1">
          <mxGeometry x="50" y="380" width="100" height="40" as="geometry" />
        </mxCell>
        
        <!-- MLP Detail -->
        <mxCell id="mlp_detail" value="MLP (Feed Forward)" style="rounded=1;whiteSpace=wrap;html=1;fillColor=#ffe6cc;strokeColor=#d79b00;fontStyle=1;fontSize=12;dashed=1;" vertex="1" parent="1">
          <mxGeometry x="180" y="370" width="150" height="120" as="geometry" />
        </mxCell>
        
        <mxCell id="linear1" value="Linear 1&#xa;dim → mlp_hidden_dim&#xa;(dim × mlp_ratio)" style="rounded=1;whiteSpace=wrap;html=1;fillColor=#ffe6cc;strokeColor=#d79b00;fontSize=10;" vertex="1" parent="1">
          <mxGeometry x="200" y="390" width="110" height="30" as="geometry" />
        </mxCell>
        
        <mxCell id="activation" value="Activation&#xa;GELU (default)&#xa;+ dropout" style="rounded=1;whiteSpace=wrap;html=1;fillColor=#ffe6cc;strokeColor=#d79b00;fontSize=10;" vertex="1" parent="1">
          <mxGeometry x="200" y="430" width="110" height="30" as="geometry" />
        </mxCell>
        
        <mxCell id="linear2" value="Linear 2&#xa;mlp_hidden_dim → dim&#xa;+ dropout" style="rounded=1;whiteSpace=wrap;html=1;fillColor=#ffe6cc;strokeColor=#d79b00;fontSize=10;" vertex="1" parent="1">
          <mxGeometry x="200" y="470" width="110" height="30" as="geometry" />
        </mxCell>
        
        <!-- Residual Connection 2 -->
        <mxCell id="residual_add2" value="Residual Add&#xa;x = x + mlp(norm2(x))&#xa;+ γ₂ scaling (if enabled)" style="rounded=1;whiteSpace=wrap;html=1;fillColor=#fff2cc;strokeColor=#d6b656;fontStyle=1;fontSize=11;" vertex="1" parent="1">
          <mxGeometry x="50" y="510" width="150" height="40" as="geometry" />
        </mxCell>
        
        <!-- Output -->
        <mxCell id="output" value="Output Features&#xa;Shape: (B, N, D)&#xa;Enhanced representations" style="rounded=1;whiteSpace=wrap;html=1;fillColor=#f5f5f5;strokeColor=#666666;fontStyle=1;fontSize=12;" vertex="1" parent="1">
          <mxGeometry x="50" y="590" width="140" height="60" as="geometry" />
        </mxCell>
        
        <!-- Key Parameters -->
        <mxCell id="params" value="Key Parameters:&#xa;• dim: feature dimension&#xa;• num_heads: 8/12&#xa;• mlp_ratio: 4.0&#xa;• qkv_bias: True/False&#xa;• qk_scale: auto/manual&#xa;• drop: dropout rate&#xa;• attn_drop: attention dropout&#xa;• init_values: γ scaling" style="rounded=1;whiteSpace=wrap;html=1;fillColor=#f8f8ff;strokeColor=#666666;fontSize=10;align=left;" vertex="1" parent="1">
          <mxGeometry x="400" y="150" width="150" height="140" as="geometry" />
        </mxCell>
        
        <!-- Attention Mechanism Details -->
        <mxCell id="attention_details" value="Attention Details:&#xa;• Scaled Dot-Product Attention&#xa;• Multi-head parallel processing&#xa;• Query/Key/Value projections&#xa;• Bias handling for Q&V only&#xa;• Head dimension flexibility&#xa;• Dropout on attention weights&#xa;• Output projection & dropout" style="rounded=1;whiteSpace=wrap;html=1;fillColor=#e6f3ff;strokeColor=#666666;fontSize=10;align=left;" vertex="1" parent="1">
          <mxGeometry x="400" y="320" width="170" height="120" as="geometry" />
        </mxCell>
        
        <!-- MLP Details -->
        <mxCell id="mlp_details" value="MLP Details:&#xa;• Two linear transformations&#xa;• Expansion: dim → 4×dim&#xa;• Contraction: 4×dim → dim&#xa;• GELU activation (default)&#xa;• Dropout after each layer&#xa;• Feed-forward processing&#xa;• Position-wise application" style="rounded=1;whiteSpace=wrap;html=1;fillColor=#ffeeee;strokeColor=#666666;fontSize=10;align=left;" vertex="1" parent="1">
          <mxGeometry x="400" y="470" width="170" height="120" as="geometry" />
        </mxCell>
        
        <!-- Arrows for Main Flow -->
        <mxCell id="arrow1" value="" style="endArrow=classic;html=1;rounded=0;exitX=0.5;exitY=1;exitDx=0;exitDy=0;entryX=0.5;entryY=0;entryDx=0;entryDy=0;" edge="1" parent="1" source="input" target="norm1">
          <mxGeometry width="50" height="50" relative="1" as="geometry">
            <mxPoint x="120" y="110" as="sourcePoint" />
            <mxPoint x="100" y="140" as="targetPoint" />
          </mxGeometry>
        </mxCell>
        
        <mxCell id="arrow2" value="" style="endArrow=classic;html=1;rounded=0;exitX=1;exitY=0.5;exitDx=0;exitDy=0;entryX=0;entryY=0.5;entryDx=0;entryDy=0;" edge="1" parent="1" source="norm1" target="qkv_linear">
          <mxGeometry width="50" height="50" relative="1" as="geometry">
            <mxPoint x="160" y="170" as="sourcePoint" />
            <mxPoint x="190" y="175" as="targetPoint" />
          </mxGeometry>
        </mxCell>
        
        <mxCell id="arrow3" value="" style="endArrow=classic;html=1;rounded=0;exitX=0.5;exitY=1;exitDx=0;exitDy=0;entryX=0.5;entryY=0;entryDx=0;entryDy=0;" edge="1" parent="1" source="qkv_linear" target="reshape_split">
          <mxGeometry width="50" height="50" relative="1" as="geometry">
            <mxPoint x="255" y="200" as="sourcePoint" />
            <mxPoint x="255" y="210" as="targetPoint" />
          </mxGeometry>
        </mxCell>
        
        <mxCell id="arrow4" value="" style="endArrow=classic;html=1;rounded=0;exitX=0.5;exitY=1;exitDx=0;exitDy=0;entryX=0.5;entryY=0;entryDx=0;entryDy=0;" edge="1" parent="1" source="reshape_split" target="attention_calc">
          <mxGeometry width="50" height="50" relative="1" as="geometry">
            <mxPoint x="255" y="240" as="sourcePoint" />
            <mxPoint x="255" y="250" as="targetPoint" />
          </mxGeometry>
        </mxCell>
        
        <mxCell id="arrow5" value="" style="endArrow=classic;html=1;rounded=0;exitX=0;exitY=0.5;exitDx=0;exitDy=0;entryX=1;entryY=0.5;entryDx=0;entryDy=0;" edge="1" parent="1" source="attention_calc" target="residual_add1">
          <mxGeometry width="50" height="50" relative="1" as="geometry">
            <mxPoint x="190" y="255" as="sourcePoint" />
            <mxPoint x="210" y="300" as="targetPoint" />
            <Array as="points">
              <mxPoint x="170" y="255" />
              <mxPoint x="170" y="300" />
            </Array>
          </mxGeometry>
        </mxCell>
        
        <mxCell id="arrow6" value="" style="endArrow=classic;html=1;rounded=0;exitX=0.5;exitY=1;exitDx=0;exitDy=0;entryX=0.5;entryY=0;entryDx=0;entryDy=0;" edge="1" parent="1" source="residual_add1" target="norm2">
          <mxGeometry width="50" height="50" relative="1" as="geometry">
            <mxPoint x="125" y="330" as="sourcePoint" />
            <mxPoint x="100" y="370" as="targetPoint" />
          </mxGeometry>
        </mxCell>
        
        <mxCell id="arrow7" value="" style="endArrow=classic;html=1;rounded=0;exitX=1;exitY=0.5;exitDx=0;exitDy=0;entryX=0;entryY=0.5;entryDx=0;entryDy=0;" edge="1" parent="1" source="norm2" target="linear1">
          <mxGeometry width="50" height="50" relative="1" as="geometry">
            <mxPoint x="160" y="400" as="sourcePoint" />
            <mxPoint x="190" y="405" as="targetPoint" />
          </mxGeometry>
        </mxCell>
        
        <mxCell id="arrow8" value="" style="endArrow=classic;html=1;rounded=0;exitX=0.5;exitY=1;exitDx=0;exitDy=0;entryX=0.5;entryY=0;entryDx=0;entryDy=0;" edge="1" parent="1" source="linear1" target="activation">
          <mxGeometry width="50" height="50" relative="1" as="geometry">
            <mxPoint x="255" y="430" as="sourcePoint" />
            <mxPoint x="255" y="440" as="targetPoint" />
          </mxGeometry>
        </mxCell>
        
        <mxCell id="arrow9" value="" style="endArrow=classic;html=1;rounded=0;exitX=0.5;exitY=1;exitDx=0;exitDy=0;entryX=0.5;entryY=0;entryDx=0;entryDy=0;" edge="1" parent="1" source="activation" target="linear2">
          <mxGeometry width="50" height="50" relative="1" as="geometry">
            <mxPoint x="255" y="470" as="sourcePoint" />
            <mxPoint x="255" y="480" as="targetPoint" />
          </mxGeometry>
        </mxCell>
        
        <mxCell id="arrow10" value="" style="endArrow=classic;html=1;rounded=0;exitX=0;exitY=0.5;exitDx=0;exitDy=0;entryX=1;entryY=0.5;entryDx=0;entryDy=0;" edge="1" parent="1" source="linear2" target="residual_add2">
          <mxGeometry width="50" height="50" relative="1" as="geometry">
            <mxPoint x="190" y="485" as="sourcePoint" />
            <mxPoint x="210" y="530" as="targetPoint" />
            <Array as="points">
              <mxPoint x="170" y="485" />
              <mxPoint x="170" y="530" />
            </Array>
          </mxGeometry>
        </mxCell>
        
        <mxCell id="arrow11" value="" style="endArrow=classic;html=1;rounded=0;exitX=0.5;exitY=1;exitDx=0;exitDy=0;entryX=0.5;entryY=0;entryDx=0;entryDy=0;" edge="1" parent="1" source="residual_add2" target="output">
          <mxGeometry width="50" height="50" relative="1" as="geometry">
            <mxPoint x="125" y="560" as="sourcePoint" />
            <mxPoint x="120" y="580" as="targetPoint" />
          </mxGeometry>
        </mxCell>
        
        <!-- Residual Connections (Dashed) -->
        <mxCell id="residual1" value="" style="endArrow=classic;html=1;rounded=0;exitX=0;exitY=0.5;exitDx=0;exitDy=0;entryX=0;entryY=0.5;entryDx=0;entryDy=0;dashed=1;strokeColor=#999999;" edge="1" parent="1" source="input" target="residual_add1">
          <mxGeometry width="50" height="50" relative="1" as="geometry">
            <mxPoint x="40" y="75" as="sourcePoint" />
            <mxPoint x="40" y="300" as="targetPoint" />
            <Array as="points">
              <mxPoint x="20" y="75" />
              <mxPoint x="20" y="300" />
            </Array>
          </mxGeometry>
        </mxCell>
        
        <mxCell id="residual2" value="" style="endArrow=classic;html=1;rounded=0;exitX=0;exitY=0.5;exitDx=0;exitDy=0;entryX=0;entryY=0.5;entryDx=0;entryDy=0;dashed=1;strokeColor=#999999;" edge="1" parent="1" source="residual_add1" target="residual_add2">
          <mxGeometry width="50" height="50" relative="1" as="geometry">
            <mxPoint x="40" y="300" as="sourcePoint" />
            <mxPoint x="40" y="530" as="targetPoint" />
            <Array as="points">
              <mxPoint x="20" y="300" />
              <mxPoint x="20" y="530" />
            </Array>
          </mxGeometry>
        </mxCell>
        
      </root>
    </mxGraphModel>
  </diagram>
</mxfile> 